<mxfile host="app.diagrams.net" modified="2021-05-14T16:39:03.102Z" agent="5.0 (X11; Linux x86_64) AppleWebKit/537.36 (KHTML, like Gecko) Chrome/89.0.4389.90 Safari/537.36" etag="fs7b8bkMLGR7CFZwDMoz" version="14.6.13" type="github">
  <diagram id="8WWkyR2Xk-BZwrAZDh8B" name="Page-1">
    <mxGraphModel dx="1038" dy="564" grid="1" gridSize="10" guides="1" tooltips="1" connect="1" arrows="1" fold="1" page="1" pageScale="1" pageWidth="827" pageHeight="1169" math="0" shadow="0">
      <root>
        <mxCell id="0" />
        <mxCell id="1" parent="0" />
        <mxCell id="sABxavPG_k39-oUsNh8Q-3" value="Children" style="edgeStyle=orthogonalEdgeStyle;rounded=0;orthogonalLoop=1;jettySize=auto;html=1;" edge="1" parent="1" source="sABxavPG_k39-oUsNh8Q-1" target="sABxavPG_k39-oUsNh8Q-2">
          <mxGeometry relative="1" as="geometry" />
        </mxCell>
        <mxCell id="sABxavPG_k39-oUsNh8Q-1" value="App" style="rounded=0;whiteSpace=wrap;html=1;" vertex="1" parent="1">
          <mxGeometry x="10" y="10" width="130" height="30" as="geometry" />
        </mxCell>
        <mxCell id="sABxavPG_k39-oUsNh8Q-12" value="Children" style="edgeStyle=orthogonalEdgeStyle;rounded=0;orthogonalLoop=1;jettySize=auto;html=1;entryX=0.75;entryY=0;entryDx=0;entryDy=0;" edge="1" parent="1" source="sABxavPG_k39-oUsNh8Q-2" target="sABxavPG_k39-oUsNh8Q-4">
          <mxGeometry relative="1" as="geometry" />
        </mxCell>
        <mxCell id="sABxavPG_k39-oUsNh8Q-13" value="Children" style="edgeStyle=orthogonalEdgeStyle;rounded=0;orthogonalLoop=1;jettySize=auto;html=1;entryX=0.5;entryY=0;entryDx=0;entryDy=0;" edge="1" parent="1" source="sABxavPG_k39-oUsNh8Q-2" target="sABxavPG_k39-oUsNh8Q-5">
          <mxGeometry relative="1" as="geometry" />
        </mxCell>
        <mxCell id="sABxavPG_k39-oUsNh8Q-14" value="Children" style="edgeStyle=orthogonalEdgeStyle;rounded=0;orthogonalLoop=1;jettySize=auto;html=1;entryX=0.45;entryY=-0.07;entryDx=0;entryDy=0;entryPerimeter=0;" edge="1" parent="1" source="sABxavPG_k39-oUsNh8Q-2" target="sABxavPG_k39-oUsNh8Q-6">
          <mxGeometry relative="1" as="geometry" />
        </mxCell>
        <mxCell id="sABxavPG_k39-oUsNh8Q-2" value="ul" style="rounded=0;whiteSpace=wrap;html=1;" vertex="1" parent="1">
          <mxGeometry x="160" y="60" width="120" height="20" as="geometry" />
        </mxCell>
        <mxCell id="sABxavPG_k39-oUsNh8Q-4" value="li" style="rounded=0;whiteSpace=wrap;html=1;" vertex="1" parent="1">
          <mxGeometry x="20" y="140" width="110" height="20" as="geometry" />
        </mxCell>
        <mxCell id="sABxavPG_k39-oUsNh8Q-5" value="li" style="rounded=0;whiteSpace=wrap;html=1;" vertex="1" parent="1">
          <mxGeometry x="160" y="140" width="120" height="20" as="geometry" />
        </mxCell>
        <mxCell id="sABxavPG_k39-oUsNh8Q-6" value="li" style="rounded=0;whiteSpace=wrap;html=1;" vertex="1" parent="1">
          <mxGeometry x="320" y="140" width="120" height="20" as="geometry" />
        </mxCell>
      </root>
    </mxGraphModel>
  </diagram>
</mxfile>
